<svg width="86" height="29" viewBox="0 0 86 29" fill="none" xmlns="http://www.w3.org/2000/svg">
<path d="M22.7175 27.1053C22.3062 27.1045 21.9033 26.9918 21.555 26.7803L15 22.8182L8.44502 26.7791C8.06305 27.0095 7.61686 27.1205 7.16726 27.0969C6.71766 27.0733 6.28654 26.9162 5.93267 26.647C5.57881 26.3779 5.31942 26.0098 5.18987 25.593C5.06032 25.1761 5.06692 24.7308 5.20877 24.3177L7.65877 17.2175L3.30252 13.7073C2.95666 13.4294 2.70789 13.0552 2.5901 12.6356C2.47232 12.216 2.49126 11.7716 2.64434 11.3628C2.79742 10.954 3.07719 10.6008 3.44551 10.3513C3.81383 10.1018 4.25278 9.96825 4.70252 9.96874H10.6L12.9513 3.90774C13.1074 3.50436 13.3873 3.15669 13.7534 2.91124C14.1195 2.66579 14.5545 2.53427 15 2.53427C15.4456 2.53427 15.8805 2.66579 16.2466 2.91124C16.6128 3.15669 16.8926 3.50436 17.0488 3.90774L18.69 8.13691C18.7446 8.25009 18.7744 8.37296 18.7776 8.49781C18.7808 8.62266 18.7572 8.74679 18.7084 8.86242C18.6596 8.97805 18.5866 9.08268 18.4939 9.16974C18.4013 9.25679 18.2911 9.32441 18.1701 9.36833C18.0492 9.41226 17.9202 9.43154 17.7911 9.42498C17.6621 9.41842 17.5359 9.38615 17.4204 9.33021C17.3049 9.27426 17.2026 9.19584 17.1199 9.09986C17.0373 9.00389 16.976 8.89243 16.94 8.77249L15.2975 4.54333C15.1725 4.2207 14.8388 4.2207 14.7125 4.54333L12.125 11.1928C12.0585 11.3654 11.9391 11.5142 11.7828 11.6193C11.6264 11.7245 11.4405 11.781 11.25 11.7812H4.70252C4.63832 11.7813 4.57568 11.8004 4.52313 11.8361C4.47058 11.8717 4.43067 11.9221 4.40882 11.9805C4.38696 12.0389 4.38424 12.1023 4.401 12.1622C4.41777 12.2221 4.45321 12.2756 4.50252 12.3153L9.35002 16.2207C9.49521 16.337 9.60061 16.4931 9.65237 16.6684C9.70412 16.8438 9.69982 17.0301 9.64002 17.203L6.98877 24.8917C6.96485 24.9504 6.96208 25.0153 6.9809 25.0758C6.99972 25.1363 7.03903 25.1889 7.09252 25.2252C7.14191 25.2659 7.20384 25.2898 7.26871 25.2931C7.33357 25.2964 7.39775 25.2789 7.45127 25.2433L14.5 20.9815C14.6488 20.8914 14.8207 20.8437 14.9963 20.8437C15.1718 20.8437 15.3438 20.8914 15.4925 20.9815L22.545 25.2433C22.5987 25.2787 22.6629 25.296 22.7278 25.2925C22.7927 25.289 22.8545 25.2649 22.9038 25.2239C22.9573 25.1877 22.9966 25.1351 23.0154 25.0746C23.0342 25.0141 23.0314 24.9492 23.0075 24.8905L20.3563 17.203C20.2965 17.0301 20.2922 16.8438 20.3439 16.6684C20.3957 16.4931 20.5011 16.337 20.6463 16.2207L25.5 12.3153C25.5492 12.2756 25.5847 12.2223 25.6015 12.1625C25.6183 12.1027 25.6156 12.0394 25.5939 11.9811C25.5722 11.9228 25.5325 11.8723 25.4802 11.8366C25.4278 11.8008 25.3654 11.7815 25.3013 11.7812H18.75C18.5014 11.7812 18.2629 11.6858 18.0871 11.5158C17.9113 11.3459 17.8125 11.1153 17.8125 10.875C17.8125 10.6346 17.9113 10.4041 18.0871 10.2342C18.2629 10.0642 18.5014 9.96874 18.75 9.96874H25.2975C25.7471 9.9685 26.1859 10.1023 26.554 10.3518C26.9222 10.6014 27.2017 10.9546 27.3547 11.3633C27.5076 11.7721 27.5264 12.2164 27.4086 12.6359C27.2908 13.0553 27.042 13.4295 26.6963 13.7073L22.3413 17.2175L24.7913 24.3177C24.8997 24.6357 24.9288 24.9739 24.8762 25.3049C24.8235 25.6358 24.6907 25.95 24.4885 26.2218C24.2863 26.4936 24.0204 26.7154 23.7126 26.8689C23.4049 27.0225 23.0639 27.1035 22.7175 27.1053Z" fill="black"/>
<path d="M15 16.9167C15.6904 16.9167 16.25 16.3757 16.25 15.7083C16.25 15.041 15.6904 14.5 15 14.5C14.3096 14.5 13.75 15.041 13.75 15.7083C13.75 16.3757 14.3096 16.9167 15 16.9167Z" fill="#082793"/>
<path d="M42.6719 17.2793C42.6719 17.0254 42.6328 16.7975 42.5547 16.5957C42.4831 16.3874 42.3464 16.1986 42.1445 16.0293C41.9427 15.8535 41.6595 15.681 41.2949 15.5117C40.9303 15.3424 40.4583 15.1667 39.8789 14.9844C39.2344 14.776 38.6224 14.5417 38.043 14.2812C37.4701 14.0208 36.9622 13.7181 36.5195 13.373C36.0833 13.0215 35.7383 12.6146 35.4844 12.1523C35.237 11.6901 35.1133 11.153 35.1133 10.541C35.1133 9.94857 35.2435 9.41146 35.5039 8.92969C35.7643 8.44141 36.1289 8.02474 36.5977 7.67969C37.0664 7.32812 37.6198 7.05794 38.2578 6.86914C38.9023 6.68034 39.6087 6.58594 40.377 6.58594C41.4251 6.58594 42.3398 6.77474 43.1211 7.15234C43.9023 7.52995 44.5078 8.04753 44.9375 8.70508C45.3737 9.36263 45.5918 10.1146 45.5918 10.9609H42.6816C42.6816 10.5443 42.5938 10.1797 42.418 9.86719C42.2487 9.54818 41.9883 9.29753 41.6367 9.11523C41.2917 8.93294 40.8555 8.8418 40.3281 8.8418C39.8203 8.8418 39.3971 8.91992 39.0586 9.07617C38.7201 9.22591 38.4661 9.43099 38.2969 9.69141C38.1276 9.94531 38.043 10.2318 38.043 10.5508C38.043 10.7917 38.1016 11.0098 38.2188 11.2051C38.3424 11.4004 38.5247 11.5827 38.7656 11.752C39.0065 11.9212 39.3027 12.0807 39.6543 12.2305C40.0059 12.3802 40.4128 12.5267 40.875 12.6699C41.6497 12.9043 42.3301 13.168 42.916 13.4609C43.5085 13.7539 44.0033 14.0827 44.4004 14.4473C44.7975 14.8118 45.097 15.2253 45.2988 15.6875C45.5007 16.1497 45.6016 16.6738 45.6016 17.2598C45.6016 17.8783 45.4811 18.4316 45.2402 18.9199C44.9993 19.4082 44.651 19.8216 44.1953 20.1602C43.7396 20.4987 43.196 20.7559 42.5645 20.9316C41.9329 21.1074 41.2266 21.1953 40.4453 21.1953C39.7422 21.1953 39.0488 21.1042 38.3652 20.9219C37.6816 20.7331 37.0599 20.4499 36.5 20.0723C35.9466 19.6947 35.5039 19.2129 35.1719 18.627C34.8398 18.041 34.6738 17.3477 34.6738 16.5469H37.6133C37.6133 16.9896 37.6816 17.3639 37.8184 17.6699C37.9551 17.9759 38.1471 18.2233 38.3945 18.4121C38.6484 18.6009 38.9479 18.7376 39.293 18.8223C39.6445 18.9069 40.0286 18.9492 40.4453 18.9492C40.9531 18.9492 41.3698 18.8776 41.6953 18.7344C42.0273 18.5911 42.2715 18.3926 42.4277 18.1387C42.5905 17.8848 42.6719 17.5983 42.6719 17.2793ZM50.3867 10.4336V21H47.5645V10.4336H50.3867ZM47.3887 7.67969C47.3887 7.26953 47.5319 6.93099 47.8184 6.66406C48.1048 6.39714 48.4889 6.26367 48.9707 6.26367C49.446 6.26367 49.8268 6.39714 50.1133 6.66406C50.4062 6.93099 50.5527 7.26953 50.5527 7.67969C50.5527 8.08984 50.4062 8.42839 50.1133 8.69531C49.8268 8.96224 49.446 9.0957 48.9707 9.0957C48.4889 9.0957 48.1048 8.96224 47.8184 8.69531C47.5319 8.42839 47.3887 8.08984 47.3887 7.67969ZM55.5234 12.7383V21H52.7109V10.4336H55.3574L55.5234 12.7383ZM58.707 10.3652L58.6582 12.9727C58.5215 12.9531 58.3555 12.9368 58.1602 12.9238C57.9714 12.9043 57.7988 12.8945 57.6426 12.8945C57.2454 12.8945 56.9004 12.9466 56.6074 13.0508C56.321 13.1484 56.0801 13.2949 55.8848 13.4902C55.696 13.6855 55.5527 13.9232 55.4551 14.2031C55.3639 14.4831 55.3118 14.8021 55.2988 15.1602L54.7324 14.9844C54.7324 14.3008 54.8008 13.6725 54.9375 13.0996C55.0742 12.5202 55.2728 12.0156 55.5332 11.5859C55.8001 11.1562 56.1257 10.8242 56.5098 10.5898C56.8939 10.3555 57.3333 10.2383 57.8281 10.2383C57.9844 10.2383 58.1439 10.2513 58.3066 10.2773C58.4694 10.2969 58.6029 10.3262 58.707 10.3652ZM63.0039 10.4336V21H60.1816V10.4336H63.0039ZM60.0059 7.67969C60.0059 7.26953 60.1491 6.93099 60.4355 6.66406C60.722 6.39714 61.1061 6.26367 61.5879 6.26367C62.0632 6.26367 62.444 6.39714 62.7305 6.66406C63.0234 6.93099 63.1699 7.26953 63.1699 7.67969C63.1699 8.08984 63.0234 8.42839 62.7305 8.69531C62.444 8.96224 62.0632 9.0957 61.5879 9.0957C61.1061 9.0957 60.722 8.96224 60.4355 8.69531C60.1491 8.42839 60.0059 8.08984 60.0059 7.67969ZM71.5781 18.4707V10.4336H74.3906V21H71.7441L71.5781 18.4707ZM71.8906 16.3027L72.7207 16.2832C72.7207 16.9863 72.6393 17.6406 72.4766 18.2461C72.3138 18.8451 72.0697 19.3659 71.7441 19.8086C71.4186 20.2448 71.0085 20.5866 70.5137 20.834C70.0189 21.0749 69.4362 21.1953 68.7656 21.1953C68.2513 21.1953 67.776 21.1237 67.3398 20.9805C66.9102 20.8307 66.5391 20.5996 66.2266 20.2871C65.9206 19.9681 65.6797 19.5612 65.5039 19.0664C65.3346 18.5651 65.25 17.9629 65.25 17.2598V10.4336H68.0625V17.2793C68.0625 17.5918 68.0983 17.8555 68.1699 18.0703C68.248 18.2852 68.3555 18.4609 68.4922 18.5977C68.6289 18.7344 68.7884 18.832 68.9707 18.8906C69.1595 18.9492 69.3678 18.9785 69.5957 18.9785C70.1751 18.9785 70.6309 18.8613 70.9629 18.627C71.3014 18.3926 71.5391 18.0736 71.6758 17.6699C71.819 17.2598 71.8906 16.804 71.8906 16.3027ZM82.252 18.0801C82.252 17.8783 82.1934 17.696 82.0762 17.5332C81.959 17.3704 81.7409 17.2207 81.4219 17.084C81.1094 16.9408 80.6569 16.8105 80.0645 16.6934C79.5306 16.5762 79.0326 16.4297 78.5703 16.2539C78.1146 16.0716 77.7174 15.8535 77.3789 15.5996C77.0469 15.3457 76.7865 15.0462 76.5977 14.7012C76.4089 14.3496 76.3145 13.9492 76.3145 13.5C76.3145 13.0573 76.4089 12.6406 76.5977 12.25C76.793 11.8594 77.0697 11.5143 77.4277 11.2148C77.7923 10.9089 78.235 10.6712 78.7559 10.502C79.2832 10.3262 79.8757 10.2383 80.5332 10.2383C81.4512 10.2383 82.2389 10.3848 82.8965 10.6777C83.5605 10.9707 84.0684 11.3743 84.4199 11.8887C84.778 12.3965 84.957 12.9759 84.957 13.627H82.1445C82.1445 13.3535 82.0859 13.1094 81.9688 12.8945C81.8581 12.6732 81.6823 12.5007 81.4414 12.377C81.207 12.2467 80.901 12.1816 80.5234 12.1816C80.2109 12.1816 79.9408 12.237 79.7129 12.3477C79.485 12.4518 79.3092 12.5951 79.1855 12.7773C79.0684 12.9531 79.0098 13.1484 79.0098 13.3633C79.0098 13.526 79.0423 13.6725 79.1074 13.8027C79.179 13.9264 79.293 14.0404 79.4492 14.1445C79.6055 14.2487 79.8073 14.3464 80.0547 14.4375C80.3086 14.5221 80.6211 14.6003 80.9922 14.6719C81.7539 14.8281 82.4342 15.0332 83.0332 15.2871C83.6322 15.5345 84.1074 15.873 84.459 16.3027C84.8105 16.7259 84.9863 17.2826 84.9863 17.9727C84.9863 18.4414 84.8822 18.8711 84.6738 19.2617C84.4655 19.6523 84.166 19.9941 83.7754 20.2871C83.3848 20.5736 82.916 20.7982 82.3691 20.9609C81.8288 21.1172 81.2201 21.1953 80.543 21.1953C79.5599 21.1953 78.7266 21.0195 78.043 20.668C77.3659 20.3164 76.8516 19.8704 76.5 19.3301C76.1549 18.7832 75.9824 18.2233 75.9824 17.6504H78.6484C78.6615 18.0345 78.7591 18.3438 78.9414 18.5781C79.1302 18.8125 79.3678 18.9818 79.6543 19.0859C79.9473 19.1901 80.263 19.2422 80.6016 19.2422C80.9661 19.2422 81.2689 19.1934 81.5098 19.0957C81.7507 18.9915 81.9329 18.8548 82.0566 18.6855C82.1868 18.5098 82.252 18.3079 82.252 18.0801Z" fill="black"/>
</svg>
